<svg width="300" height="300" viewBox="0 0 300 300" fill="none" xmlns="http://www.w3.org/2000/svg">
<g clip-path="url(#clip0_1_2)">
<g filter="url(#filter0_f_1_2)">
<path d="M282.037 143.056C288.039 145.968 288.051 154.513 282.058 157.442L87.4867 252.513C82.1766 255.107 75.9831 251.247 75.9746 245.336L75.7032 55.7522C75.6948 49.8421 81.8772 45.9635 87.1947 48.5429L282.037 143.056Z" fill="#461111"/>
<path d="M89.9013 257.454L284.473 162.384C294.586 157.442 294.566 143.021 284.438 138.108L89.5952 43.5943C80.6218 39.2416 70.189 45.7867 70.2032 55.7601L70.4746 245.344C70.4889 255.318 80.9404 261.833 89.9013 257.454Z" stroke="#E82929" stroke-width="11"/>
</g>
<path d="M88.1453 253.86L282.717 158.79C289.834 155.312 289.819 145.164 282.692 141.707L87.8494 47.1933C81.5348 44.1302 74.1932 48.7361 74.2032 55.7543L74.4746 245.339C74.4847 252.357 81.8395 256.942 88.1453 253.86Z" fill="#461111" stroke="#E82929" stroke-width="3"/>
<path d="M118.113 210C115.672 210 114.451 208.657 114.451 205.972V108.999C114.451 106.313 115.672 104.971 118.113 104.971H148.875C165.477 104.971 176.683 107.778 182.493 113.394C188.304 118.96 191.209 126.626 191.209 136.392C191.209 146.157 188.304 153.848 182.493 159.463C176.683 165.029 165.477 167.812 148.875 167.812H128.514V205.972C128.514 208.657 127.293 210 124.852 210H118.113ZM128.514 155.801H149.095C159.837 155.801 167.161 154.287 171.067 151.26C174.974 148.184 176.927 143.228 176.927 136.392C176.927 129.556 174.974 124.624 171.067 121.597C167.161 118.521 159.837 116.982 149.095 116.982H128.514V155.801Z" fill="#F4CACA"/>
</g>
<defs>
<filter id="filter0_f_1_2" x="54.7032" y="26.7169" width="252.843" height="247.632" filterUnits="userSpaceOnUse" color-interpolation-filters="sRGB">
<feFlood flood-opacity="0" result="BackgroundImageFix"/>
<feBlend mode="normal" in="SourceGraphic" in2="BackgroundImageFix" result="shape"/>
<feGaussianBlur stdDeviation="5" result="effect1_foregroundBlur_1_2"/>
</filter>
<clipPath id="clip0_1_2">
<rect width="300" height="300" fill="white"/>
</clipPath>
</defs>
</svg>
